<svg id="Layer_1" data-name="Layer 1" xmlns="http://www.w3.org/2000/svg" viewBox="0 0 128 128"><defs><style>.cls-1{fill:#666;}.cls-2,.cls-3,.cls-4,.cls-5{fill:none;}.cls-2,.cls-4,.cls-5{stroke:#666;stroke-miterlimit:10;}.cls-2{stroke-width:4.218px;}.cls-4{stroke-width:3.731px;}.cls-5{stroke-width:2.798px;}</style></defs><title>NEW_SVGS</title><path class="cls-1" d="M71.47,101.884C47.039,101.4,22.461,75.83,22.87,51.454c.244-14.594,12.459-24.3,27.4-22.161a48.393,48.393,0,0,1,17.189,5.855c1.062.6,3,1.034,1.691,2.958-1.163,1.707-2.294.39-3.425-.253-4.967-2.821-10.063-5.093-15.869-5.886C37.821,30.322,30.7,37.235,32.47,49.244c2.665,18.088,24.861,39.019,43.173,40.713C87.758,91.079,94.424,83.518,91.8,71.53a42.044,42.044,0,0,0-5.441-13.1c-.721-1.168-1.712-2.327.21-3.288,1.62-.811,2,.552,2.572,1.532,4.588,7.88,7.473,16.257,6.388,25.487C94.074,94.538,84.624,102.144,71.47,101.884Z"/><path class="cls-1" d="M77.365,123H17.411a136.954,136.954,0,0,0,9-31.093c.584-3.225,6.614-3.258,10-.057,6.868,6.487,14.522,12.423,23.98,13.115,11.425.836,15.425,7.424,17.174,17.1A3.685,3.685,0,0,1,77.365,123Z"/><path class="cls-1" d="M77.841,56.158c-4.819-.04-9.394-4.693-9.422-9.582a9.557,9.557,0,0,1,9.3-9.5,9.414,9.414,0,0,1,9.655,9.671C87.231,51.75,82.723,56.2,77.841,56.158Z"/><path class="cls-2" d="M82.3,13.873a28.615,28.615,0,0,1,28.63,28.6q0,.014,0,.028"/><path class="cls-3" d="M82.3,13.873a28.615,28.615,0,0,1,28.63,28.6q0,.014,0,.028"/><path class="cls-4" d="M82.3,25.8A16.733,16.733,0,0,1,99.007,42.5"/><path class="cls-5" d="M82.3,2.4a40.132,40.132,0,0,1,40.1,40.1"/></svg>